<?xml version="1.0" encoding="iso-8859-1"?>
<!-- Generator: Adobe Illustrator 16.0.0, SVG Export Plug-In . SVG Version: 6.00 Build 0)  -->
<!DOCTYPE svg PUBLIC "-//W3C//DTD SVG 1.1//EN" "http://www.w3.org/Graphics/SVG/1.1/DTD/svg11.dtd">
<svg version="1.1" id="Capa_1" xmlns="http://www.w3.org/2000/svg" xmlns:xlink="http://www.w3.org/1999/xlink" x="0px" y="0px"
	 width="48px" height="48px" viewBox="0 0 48 48" style="enable-background:new 0 0 48 48;" xml:space="preserve">
<g>
	<g id="Post_Card">
		<path d="M40.255,40H7.745C3.402,40,0,36.779,0,32.668V15.582C0,11.401,3.475,8,7.745,8h32.51C44.525,8,48,11.401,48,15.582v17.086
			C48,36.779,44.598,40,40.255,40z M7.745,10C4.577,10,2,12.504,2,15.582v17.086C2,35.658,4.523,38,7.745,38h32.51
			C43.477,38,46,35.658,46,32.668V15.582C46,12.504,43.423,10,40.255,10H7.745z"/>
		<path d="M24,34.75c-0.414,0-0.75-0.336-0.75-0.75V16c0-0.414,0.336-0.75,0.75-0.75s0.75,0.336,0.75,0.75v18
			C24.75,34.414,24.414,34.75,24,34.75z"/>
		<g>
			<g>
				<path style="stroke:#000000;stroke-width:1.5;stroke-linecap:round;stroke-linejoin:round;stroke-miterlimit:10;" d="
					M35.6,16.559"/>
				<path style="stroke:#000000;stroke-width:1.5;stroke-linecap:round;stroke-linejoin:round;stroke-miterlimit:10;" d="
					M38.87,15.614"/>
				<path d="M38.501,20.522c-0.153,0-0.308-0.047-0.44-0.145c-2.062-1.506-2.865-2.423-3.188-3.635
					c-0.294-1.107,0.328-2.614,1.688-3.007c0.629-0.182,1.289-0.109,1.861,0.208c0.572,0.315,0.987,0.835,1.168,1.462
					c0.114,0.397-0.115,0.813-0.513,0.929c-0.401,0.11-0.813-0.116-0.929-0.513c-0.068-0.241-0.229-0.442-0.451-0.563
					c-0.219-0.121-0.475-0.15-0.719-0.08c-0.485,0.14-0.77,0.766-0.658,1.181c0.191,0.719,0.666,1.379,2.623,2.809
					c0.336,0.244,0.408,0.713,0.164,1.048C38.961,20.416,38.732,20.522,38.501,20.522z"/>
			</g>
			<g>
				<path d="M38.954,20.668c-0.488,0-0.794-0.207-1.065-0.42c-0.326-0.256-0.383-0.728-0.127-1.053
					c0.254-0.325,0.727-0.385,1.053-0.127c0.104,0.082,0.143,0.102,0.149,0.106c0.446-0.041,0.767,0.299,0.784,0.713
					c0.02,0.413-0.301,0.76-0.715,0.778C39.006,20.667,38.979,20.668,38.954,20.668z"/>
			</g>
			<g>
				<path style="stroke:#000000;stroke-width:1.5;stroke-linecap:round;stroke-linejoin:round;stroke-miterlimit:10;" d="
					M42.188,16.354"/>
				<path style="stroke:#000000;stroke-width:1.5;stroke-linecap:round;stroke-linejoin:round;stroke-miterlimit:10;" d="
					M38.863,15.614"/>
				<path d="M39.488,20.491c-0.215,0-0.428-0.092-0.576-0.271c-0.266-0.318-0.221-0.792,0.098-1.057
					c1.864-1.549,2.299-2.237,2.444-2.968c0.084-0.418-0.236-1.025-0.729-1.134c-0.246-0.055-0.5-0.01-0.713,0.124
					c-0.214,0.136-0.361,0.346-0.416,0.591c-0.091,0.405-0.498,0.653-0.896,0.569c-0.404-0.091-0.659-0.491-0.569-0.896
					c0.143-0.637,0.523-1.181,1.076-1.531c0.551-0.351,1.204-0.462,1.844-0.322c1.383,0.307,2.098,1.771,1.874,2.894
					c-0.247,1.231-0.993,2.196-2.956,3.827C39.828,20.435,39.658,20.491,39.488,20.491z"/>
			</g>
			<g>
				<path d="M39,20.667c-0.407,0-0.74-0.325-0.75-0.733c-0.009-0.414,0.318-0.757,0.732-0.767l0,0c0.017,0,0.052-0.022,0.146-0.109
					c0.312-0.276,0.784-0.248,1.061,0.061c0.274,0.31,0.25,0.783-0.062,1.059c-0.271,0.241-0.58,0.479-1.111,0.49
					C39.012,20.667,39.005,20.667,39,20.667z"/>
			</g>
		</g>
		<path d="M19,26.5H8c-0.414,0-0.75-0.336-0.75-0.75S7.586,25,8,25h11c0.414,0,0.75,0.336,0.75,0.75S19.414,26.5,19,26.5z"/>
		<path d="M19,30.5H8c-0.414,0-0.75-0.336-0.75-0.75S7.586,29,8,29h11c0.414,0,0.75,0.336,0.75,0.75S19.414,30.5,19,30.5z"/>
		<path d="M19,34.5H8c-0.414,0-0.75-0.336-0.75-0.75S7.586,33,8,33h11c0.414,0,0.75,0.336,0.75,0.75S19.414,34.5,19,34.5z"/>
	</g>
</g>
<g>
</g>
<g>
</g>
<g>
</g>
<g>
</g>
<g>
</g>
<g>
</g>
<g>
</g>
<g>
</g>
<g>
</g>
<g>
</g>
<g>
</g>
<g>
</g>
<g>
</g>
<g>
</g>
<g>
</g>
</svg>
