<svg version="1.1" id="Layer_1" xmlns="http://www.w3.org/2000/svg" xmlns:xlink="http://www.w3.org/1999/xlink" x="0px" y="0px"
	 viewBox="0 0 360 360" style="enable-background:new 0 0 360 360;" xml:space="preserve">
<style type="text/css">
	.st0{fill:#333333;}
	.st1{fill:#FFFFFF;}
	.st2{fill:#EC008C;}
	.st3{clip-path:url(#XMLID_8_);}
	.st4{fill:#ECD27C;}
	.st5{opacity:0.7;fill:#CBA543;}
	.st6{clip-path:url(#XMLID_8_);fill:#ECD27C;}
	.st7{opacity:0.7;clip-path:url(#XMLID_8_);fill:#CBA543;}
	.st8{opacity:0.98;clip-path:url(#XMLID_8_);fill:#CBA543;}
	.st9{opacity:0.98;clip-path:url(#XMLID_8_);fill:#ECD27C;}
	.st10{opacity:0.98;clip-path:url(#XMLID_8_);fill:#A27B2E;}
</style>
<path id="XMLID_1_" class="st0" d="M212.2,57h23.1l1.5,29c2.6,25,7.1,39.9,11.1,53.1c3.7,12.2,7.1,23.7,8.4,39.9
	c2.7,34.6-23.4,56.1-31.9,63.1l-0.1,0.1c-0.5,0.4-1,0.8-1.4,1.1c-0.2,0.2-0.4,0.4-0.5,0.5c0,0.1,0.1,0.5,0.1,0.5
	c0.6,1.6,3.7,8,5.4,11.5c1.2,2.5,2.4,4.9,3.2,6.7c0.3,0.6,0.6,1.2,0.9,1.9c1.6,3.2,4.1,8.1,4.6,13.6c0.8,8.3-2.7,15.3-10,19.7
	c-5.9,3.6-17.4,5.8-34.2,6.7v0.3l-10,0c-0.2,0-0.9,0-2,0c-1.1,0-1.8,0-2,0h-10v-0.4c-16.9-0.9-28.3-3.1-34.2-6.7
	c-7.3-4.4-10.9-11.4-10-19.7c0.6-5.5,3-10.4,4.6-13.6c0.3-0.7,0.6-1.3,0.9-1.9c0.9-1.8,2-4.2,3.2-6.7l0-0.1
	c1.7-3.5,4.7-9.8,5.3-11.4c0,0,0.1-0.3,0.1-0.5c-0.1-0.1-0.3-0.3-0.5-0.5c-0.4-0.3-0.8-0.7-1.4-1.1l-0.1-0.1
	c-8.5-7.1-34.6-28.5-31.9-63.1c1.3-16.2,4.7-27.7,8.4-39.9c4-13.2,8.5-28.1,11.1-53.1l1.5-29h23.1"/>
<path id="XMLID_3_" class="st1" d="M216.5,235.7c0.4-0.4,1-0.8,1.6-1.3c8.4-6.9,30.6-25.2,28.3-54.6c-1.2-15.2-4.3-25.6-8-37.8
	c-4.1-13.6-8.8-29.1-11.5-55.2l-1-19.3l-3.1,0.2l1,19.3l0,0.1c2.8,26.4,7.5,42,11.6,55.8c3.6,12,6.7,22.3,7.9,37.1
	c2,25.2-15.4,42-24.6,49.9v0c-39.3,28.4-76.3,0-76.3,0l0,0c-9.2-7.9-26.6-24.7-24.6-49.9c1.1-14.8,4.3-25.2,7.9-37.1
	c4.2-13.8,8.9-29.4,11.6-55.8l1-19.4l-3.1-0.2l-1,19.3c-2.7,26-7.4,41.5-11.5,55.2c-3.7,12.1-6.8,22.6-8,37.8
	c-2.3,29.4,19.9,47.7,28.3,54.6c0.6,0.5,1.1,0.9,1.6,1.3c5.5,4.7,4.1,9.4,3.5,11.5l-0.1,0.3c-0.4,1.2-3.4,7.6-5.8,12.7
	c-1.2,2.5-2.3,4.9-3.2,6.7c-0.3,0.7-0.7,1.4-1,2.1c-2.8,5.5-7.4,14.8,1.6,20.3c7.4,4.5,29.9,5.4,39,5.6v0c0.2,0,0.9,0,2,0
	c1.1,0,1.8,0,2,0v0c9.2-0.2,31.6-1.1,39-5.6c9.1-5.5,4.4-14.8,1.6-20.3c-0.4-0.7-0.7-1.5-1-2.1c-0.8-1.8-2-4.2-3.2-6.7
	c-2.4-5.1-5.5-11.4-5.8-12.7l-0.1-0.3C212.4,245.2,210.9,240.4,216.5,235.7z"/>
<path id="XMLID_4_" class="st2" d="M236,187"/>
<g id="XMLID_5_">
	<defs>
		<ellipse id="XMLID_9_" cx="180.5" cy="180.4" rx="54.5" ry="53.7"/>
	</defs>
	<clipPath id="XMLID_8_">
		<use xlink:href="#XMLID_9_"  style="overflow:visible;"/>
	</clipPath>
	<g id="XMLID_6_" class="st3">
		<path id="XMLID_31_" class="st4" d="M235.4,187.3c0,0.1,0,0.1,0,0.2C235.4,187.4,235.4,187.4,235.4,187.3z"/>
		<path id="XMLID_35_" class="st4" d="M147.4,224.3c3.5,2.5,9.9,6.5,18.6,8.8c-6.5-1.7-12.8-4.7-18.8-8.9
			C147.3,224.2,147.3,224.2,147.4,224.3z"/>
		<path id="XMLID_37_" class="st4" d="M200.2,230.7c-5.2,2-11.7,3.7-18.9,4C187.8,234.4,194,233.1,200.2,230.7z"/>
		<path id="XMLID_38_" class="st4" d="M125.9,191.1v0.3c0.5,10.3,5.5,18.8,13.8,26.5c-5.2-5.3-11.6-14.1-12.8-26.2
			C126.1,190.3,125.9,189.8,125.9,191.1z"/>
		<path id="XMLID_42_" class="st4" d="M167.3,233.4c-0.2-0.1-0.4-0.1-0.7-0.2C166.9,233.3,167.1,233.3,167.3,233.4z"/>
		<path id="XMLID_68_" class="st4" d="M180.7,234.7C180.8,234.7,180.8,234.7,180.7,234.7C180.8,234.7,180.7,234.7,180.7,234.7
			C180.7,234.7,180.7,234.7,180.7,234.7z"/>
		<path id="XMLID_78_" class="st4" d="M219.9,217.7c-0.3,0.4-0.7,0.7-1,1.1C219.2,218.4,219.6,218.1,219.9,217.7z"/>
		<path id="XMLID_79_" class="st4" d="M169.5,233.8c-0.1,0-0.2,0-0.3-0.1C169.3,233.8,169.4,233.8,169.5,233.8z"/>
		<path id="XMLID_80_" class="st4" d="M177.8,234.7C177.8,234.7,177.7,234.7,177.8,234.7C177.7,234.7,177.8,234.7,177.8,234.7z"/>
		<path id="XMLID_81_" class="st4" d="M213.8,223.5c1.7-1.5,3.2-2.9,4.6-4.3C217,220.6,215.4,222.1,213.8,223.5
			C213.7,223.5,213.8,223.5,213.8,223.5z"/>
		<path id="XMLID_82_" class="st5" d="M146.7,223.8c0.2,0.1,0.4,0.3,0.6,0.4c-2.7-2-5.3-4.1-7.5-6.2
			C143.5,221.8,146.7,223.8,146.7,223.8z"/>
		<path id="XMLID_83_" class="st5" d="M166.6,233.2c-0.2-0.1-0.4-0.1-0.6-0.2C166.2,233.1,166.4,233.2,166.6,233.2z"/>
		<path id="XMLID_85_" class="st5" d="M169.2,233.8c-0.7-0.1-1.3-0.3-1.9-0.4C167.9,233.5,168.6,233.7,169.2,233.8z"/>
		<path id="XMLID_86_" class="st5" d="M219.9,217.7c10.1-10.2,14.7-19.3,15.5-30.2C234.5,197.3,230.9,206.6,219.9,217.7z"/>
		<path id="XMLID_87_" class="st5" d="M235.4,187C235.4,187,235.4,187,235.4,187c0,0.1,0,0.2,0,0.3
			C235.4,187.2,235.4,187.1,235.4,187z"/>
		<path id="XMLID_88_" class="st5" d="M218.9,218.8c-0.2,0.2-0.3,0.3-0.5,0.5C218.6,219.1,218.7,218.9,218.9,218.8z"/>
		<path id="XMLID_89_" class="st5" d="M213.5,223.8c0.1-0.1,0.2-0.2,0.3-0.2c-4.6,3-9.1,5.4-13.5,7.1
			C207.7,227.8,212.6,224.4,213.5,223.8z"/>
		<path id="XMLID_90_" class="st5" d="M179.1,234.7c0.5,0,1,0,1.5,0c-1,0-1.9,0-2.9,0C178.2,234.7,178.7,234.7,179.1,234.7z"/>
		<path id="XMLID_91_" class="st5" d="M177.7,234.7c-2.9-0.1-5.6-0.4-8.2-0.9C172.2,234.3,175,234.6,177.7,234.7z"/>
		<path id="XMLID_92_" class="st5" d="M181.4,234.7c-0.2,0-0.4,0-0.5,0C181,234.7,181.2,234.7,181.4,234.7z"/>
	</g>
	<path id="XMLID_39_" class="st6" d="M420.8,224.7c-5.2,2-11.7,3.7-18.9,4C408.4,228.4,414.6,227.1,420.8,224.7z"/>
	<path id="XMLID_40_" class="st6" d="M398.3,228.7C398.3,228.7,398.3,228.7,398.3,228.7C398.3,228.7,398.3,228.7,398.3,228.7z"/>
	<path id="XMLID_43_" class="st6" d="M401.3,228.7C401.3,228.7,401.3,228.7,401.3,228.7C401.3,228.7,401.3,228.7,401.3,228.7
		C401.2,228.7,401.3,228.7,401.3,228.7z"/>
	<path id="XMLID_46_" class="st6" d="M390.1,227.8c-0.1,0-0.2,0-0.3-0.1C389.9,227.8,390,227.8,390.1,227.8z"/>
	<path id="XMLID_48_" class="st6" d="M387.9,227.4c-0.2-0.1-0.4-0.1-0.7-0.2C387.4,227.3,387.6,227.3,387.9,227.4z"/>
	<path id="XMLID_71_" class="st7" d="M389.8,227.8c-0.7-0.1-1.3-0.3-1.9-0.4C388.5,227.5,389.1,227.7,389.8,227.8z"/>
	<path id="XMLID_72_" class="st7" d="M387.2,227.2c-0.2-0.1-0.4-0.1-0.6-0.2C386.8,227.1,387,227.2,387.2,227.2z"/>
	<path id="XMLID_74_" class="st7" d="M399.7,228.7c0.5,0,1,0,1.5,0c-1,0-1.9,0-2.9,0C398.8,228.7,399.2,228.7,399.7,228.7z"/>
	<path id="XMLID_75_" class="st7" d="M398.3,228.7c-2.9-0.1-5.6-0.4-8.2-0.9C392.8,228.3,395.5,228.6,398.3,228.7z"/>
	<path id="XMLID_76_" class="st7" d="M401.9,228.7c-0.2,0-0.4,0-0.5,0C401.5,228.7,401.7,228.7,401.9,228.7z"/>
	<g id="XMLID_2_" class="st3">
		<path id="XMLID_36_" class="st4" d="M236.2,187.3c0,0.1,0,0.1,0,0.2C236.2,187.4,236.2,187.4,236.2,187.3z"/>
		<path id="XMLID_41_" class="st4" d="M148.2,224.3c3.5,2.5,9.9,6.5,18.6,8.8c-6.5-1.7-12.8-4.7-18.8-8.9
			C148.1,224.2,148.2,224.2,148.2,224.3z"/>
		<path id="XMLID_45_" class="st4" d="M220.8,217.7c-0.3,0.4-0.7,0.7-1,1.1C220.1,218.4,220.4,218.1,220.8,217.7z"/>
		<path id="XMLID_47_" class="st4" d="M214.6,223.5c1.7-1.5,3.2-2.9,4.6-4.3C217.8,220.7,216.2,222.1,214.6,223.5
			C214.6,223.5,214.6,223.5,214.6,223.5z"/>
		<path id="XMLID_67_" class="st5" d="M214.3,223.8c0.1-0.1,0.2-0.2,0.3-0.2c-4.6,3-9.1,5.4-13.5,7.1
			C208.5,227.8,213.5,224.4,214.3,223.8z"/>
		<path id="XMLID_69_" class="st5" d="M220.8,217.7c10.1-10.2,14.7-19.3,15.5-30.2C235.4,197.3,231.7,206.6,220.8,217.7z"/>
		<path id="XMLID_70_" class="st5" d="M219.7,218.8c-0.2,0.2-0.3,0.3-0.5,0.5C219.4,219.1,219.6,218.9,219.7,218.8z"/>
		<path id="XMLID_73_" class="st5" d="M236.3,187C236.3,187,236.3,187,236.3,187c0,0.1,0,0.2,0,0.3
			C236.3,187.2,236.3,187.1,236.3,187z"/>
		<path id="XMLID_77_" class="st5" d="M147.5,223.8c0.2,0.1,0.4,0.3,0.6,0.4c-2.7-2-5.3-4.1-7.5-6.2
			C144.3,221.8,147.5,223.8,147.5,223.8z"/>
	</g>
	<path id="XMLID_34_" class="st8" d="M190.2,195.6c31.9,39.7,45-7.9,45.2-8.6c0.3-3.7,0.2-7.5,0-11.5c0,0-4.6-46.9-47.6-2.8
		c-3.6,3.7-7,6.9-10.2,9.8C181.8,186.1,186,190.4,190.2,195.6z"/>
	<path id="XMLID_84_" class="st9" d="M177.7,182.6c-27.2-23.1-51.5-11.7-50.9,6.6c0,0.8,0.1,1.7,0.2,2.5
		C130,197,141.5,215,177.7,182.6z"/>
	<path id="XMLID_93_" class="st10" d="M235.4,187.3c0-0.1,0-0.2,0-0.3c-0.2,0.7-13.3,48.3-45.2,8.6c-4.2-5.2-8.4-9.5-12.5-13
		c-36.2,32.4-47.6,14.4-50.7,9.1c1.2,12.2,7.6,21,12.8,26.2c2.3,2.1,4.8,4.2,7.5,6.2c6,4.2,12.3,7.2,18.8,8.9
		c0.2,0.1,0.4,0.1,0.6,0.2c0.2,0.1,0.4,0.1,0.7,0.2c0.6,0.1,1.3,0.3,1.9,0.4c0.1,0,0.2,0,0.3,0.1c2.6,0.5,5.3,0.8,8.2,0.9
		c0,0,0,0,0.1,0c0.9,0,1.9,0,2.9,0c0.1,0,0.1,0,0.2,0c0.2,0,0.4,0,0.5,0c7.2-0.3,13.6-2,18.9-4c4.4-1.8,8.9-4.1,13.5-7.1
		c1.7-1.5,3.2-2.9,4.7-4.3c0.2-0.2,0.3-0.3,0.5-0.5c0.4-0.4,0.7-0.7,1-1.1c11-11.2,14.6-20.4,15.5-30.2
		C235.4,187.4,235.4,187.4,235.4,187.3z"/>
</g>
<path id="XMLID_10_" class="st2" d="M179.8,187"/>
<path id="XMLID_11_" class="st2" d="M170.1,187"/>
</svg>
